<svg width="149" height="28" viewBox="0 0 149 28" fill="none" xmlns="http://www.w3.org/2000/svg">
<g clip-path="url(#clip0_1826_4)">
<rect width="149" height="28" fill="white"/>
<ellipse cx="21" cy="2.5" rx="2" ry="1.5" fill="#4A6CF7"/>
<path d="M19 26V6H23V26H19Z" fill="#4A6CF7"/>
<path d="M46.9495 12.5434V14.1757H49.1414V15.2111H46.9495V16.9367H49.4212V18H45.6436V11.4801H49.4212V12.5434H46.9495ZM53.9659 18L52.5294 15.4629H51.9138V18H50.608V11.4894H53.0518C53.5554 11.4894 53.9845 11.5796 54.339 11.7599C54.6934 11.934 54.9577 12.1734 55.1318 12.4781C55.3121 12.7766 55.4023 13.1124 55.4023 13.4855C55.4023 13.9145 55.2779 14.3032 55.0292 14.6514C54.7805 14.9934 54.4105 15.2297 53.9192 15.3603L55.4769 18H53.9659ZM51.9138 14.4835H53.0051C53.3596 14.4835 53.6239 14.3996 53.798 14.2317C53.9721 14.0576 54.0591 13.8182 54.0591 13.5135C54.0591 13.215 53.9721 12.9849 53.798 12.8232C53.6239 12.6553 53.3596 12.5714 53.0051 12.5714H51.9138V14.4835ZM61.3311 13.5041C61.3311 13.8524 61.2472 14.1788 61.0793 14.4835C60.9176 14.7882 60.6595 15.0338 60.3051 15.2204C59.9568 15.4069 59.5153 15.5002 58.9806 15.5002H57.8892V18H56.5834V11.4894H58.9806C59.4843 11.4894 59.9133 11.5764 60.2678 11.7506C60.6222 11.9247 60.8865 12.1641 61.0606 12.4688C61.2409 12.7735 61.3311 13.1186 61.3311 13.5041ZM58.9246 14.4462C59.2853 14.4462 59.5527 14.3654 59.7268 14.2037C59.9009 14.0358 59.9879 13.8026 59.9879 13.5041C59.9879 12.8699 59.6335 12.5527 58.9246 12.5527H57.8892V14.4462H58.9246ZM66.7287 18.0653C66.2748 18.0653 65.8644 17.9876 65.4975 17.8321C65.1369 17.6766 64.8508 17.4528 64.6394 17.1605C64.428 16.8683 64.3191 16.5231 64.3129 16.1252H65.712C65.7307 16.3926 65.824 16.604 65.9919 16.7594C66.166 16.9149 66.4023 16.9926 66.7008 16.9926C67.0055 16.9926 67.2449 16.9211 67.419 16.7781C67.5931 16.6289 67.6802 16.4361 67.6802 16.1998C67.6802 16.007 67.6211 15.8485 67.5029 15.7241C67.3848 15.5997 67.2355 15.5033 67.0552 15.4349C66.8811 15.3603 66.6386 15.2795 66.3277 15.1924C65.9048 15.068 65.5597 14.9468 65.2923 14.8286C65.0311 14.7043 64.8042 14.5208 64.6114 14.2783C64.4249 14.0296 64.3316 13.7 64.3316 13.2896C64.3316 12.9041 64.428 12.5683 64.6207 12.2822C64.8135 11.9962 65.084 11.7785 65.4322 11.6293C65.7805 11.4738 66.1784 11.3961 66.6261 11.3961C67.2977 11.3961 67.8418 11.5609 68.2585 11.8905C68.6813 12.2138 68.9145 12.6678 68.958 13.2523H67.5216C67.5092 13.0284 67.4128 12.845 67.2324 12.702C67.0583 12.5527 66.8251 12.4781 66.5329 12.4781C66.2779 12.4781 66.0727 12.5434 65.9173 12.674C65.768 12.8046 65.6934 12.9942 65.6934 13.243C65.6934 13.4171 65.7494 13.5632 65.8613 13.6814C65.9794 13.7933 66.1225 13.8866 66.2904 13.9612C66.4645 14.0296 66.707 14.1104 67.0179 14.2037C67.4407 14.3281 67.7859 14.4524 68.0533 14.5768C68.3206 14.7012 68.5507 14.8877 68.7435 15.1365C68.9363 15.3852 69.0326 15.7116 69.0326 16.1158C69.0326 16.4641 68.9425 16.7874 68.7621 17.0859C68.5818 17.3844 68.3175 17.6238 67.9693 17.8041C67.6211 17.9782 67.2076 18.0653 66.7287 18.0653ZM72.4593 18.0839C71.9619 18.0839 71.5142 17.9751 71.1162 17.7575C70.7182 17.5336 70.4042 17.2196 70.1741 16.8154C69.9502 16.4112 69.8383 15.9448 69.8383 15.4163C69.8383 14.8877 69.9533 14.4213 70.1834 14.0171C70.4197 13.613 70.74 13.302 71.1442 13.0844C71.5484 12.8605 71.9992 12.7486 72.4967 12.7486C72.9941 12.7486 73.445 12.8605 73.8491 13.0844C74.2533 13.302 74.5705 13.613 74.8005 14.0171C75.0368 14.4213 75.155 14.8877 75.155 15.4163C75.155 15.9448 75.0337 16.4112 74.7912 16.8154C74.5549 17.2196 74.2316 17.5336 73.8212 17.7575C73.417 17.9751 72.963 18.0839 72.4593 18.0839ZM72.4593 16.946C72.6956 16.946 72.9164 16.89 73.1216 16.7781C73.333 16.6599 73.5009 16.4858 73.6253 16.2558C73.7496 16.0257 73.8118 15.7458 73.8118 15.4163C73.8118 14.925 73.6812 14.5488 73.4201 14.2876C73.1651 14.0203 72.8511 13.8866 72.478 13.8866C72.1049 13.8866 71.7909 14.0203 71.5359 14.2876C71.2872 14.5488 71.1628 14.925 71.1628 15.4163C71.1628 15.9075 71.2841 16.2868 71.5266 16.5542C71.7753 16.8154 72.0862 16.946 72.4593 16.946ZM77.4187 11.0976V18H76.1129V11.0976H77.4187ZM83.5872 12.8326V18H82.272V17.3471C82.1041 17.5709 81.8834 17.7482 81.6098 17.8787C81.3424 18.0031 81.0501 18.0653 80.733 18.0653C80.3288 18.0653 79.9712 17.9813 79.6603 17.8134C79.3494 17.6393 79.1038 17.3875 78.9235 17.0579C78.7493 16.7221 78.6623 16.3242 78.6623 15.864V12.8326H79.9681V15.6774C79.9681 16.0879 80.0707 16.405 80.2759 16.6289C80.4812 16.8465 80.761 16.9553 81.1154 16.9553C81.4761 16.9553 81.759 16.8465 81.9642 16.6289C82.1694 16.405 82.272 16.0879 82.272 15.6774V12.8326H83.5872ZM86.396 13.9052V16.405C86.396 16.5791 86.4365 16.7066 86.5173 16.7874C86.6044 16.862 86.7474 16.8994 86.9464 16.8994H87.5527V18H86.7318C85.6312 18 85.0809 17.4652 85.0809 16.3957V13.9052H84.4652V12.8326H85.0809V11.5547H86.396V12.8326H87.5527V13.9052H86.396ZM89.1541 12.2169C88.9241 12.2169 88.7313 12.1454 88.5758 12.0024C88.4266 11.8532 88.352 11.6697 88.352 11.4521C88.352 11.2344 88.4266 11.0541 88.5758 10.9111C88.7313 10.7618 88.9241 10.6872 89.1541 10.6872C89.3842 10.6872 89.5739 10.7618 89.7231 10.9111C89.8786 11.0541 89.9563 11.2344 89.9563 11.4521C89.9563 11.6697 89.8786 11.8532 89.7231 12.0024C89.5739 12.1454 89.3842 12.2169 89.1541 12.2169ZM89.7977 12.8326V18H88.4919V12.8326H89.7977ZM93.3825 18.0839C92.885 18.0839 92.4373 17.9751 92.0393 17.7575C91.6414 17.5336 91.3273 17.2196 91.0973 16.8154C90.8734 16.4112 90.7615 15.9448 90.7615 15.4163C90.7615 14.8877 90.8765 14.4213 91.1066 14.0171C91.3429 13.613 91.6631 13.302 92.0673 13.0844C92.4715 12.8605 92.9223 12.7486 93.4198 12.7486C93.9173 12.7486 94.3681 12.8605 94.7723 13.0844C95.1765 13.302 95.4936 13.613 95.7237 14.0171C95.96 14.4213 96.0782 14.8877 96.0782 15.4163C96.0782 15.9448 95.9569 16.4112 95.7144 16.8154C95.4781 17.2196 95.1547 17.5336 94.7443 17.7575C94.3401 17.9751 93.8862 18.0839 93.3825 18.0839ZM93.3825 16.946C93.6188 16.946 93.8395 16.89 94.0448 16.7781C94.2562 16.6599 94.4241 16.4858 94.5484 16.2558C94.6728 16.0257 94.735 15.7458 94.735 15.4163C94.735 14.925 94.6044 14.5488 94.3432 14.2876C94.0883 14.0203 93.7743 13.8866 93.4012 13.8866C93.0281 13.8866 92.714 14.0203 92.4591 14.2876C92.2103 14.5488 92.086 14.925 92.086 15.4163C92.086 15.9075 92.2072 16.2868 92.4497 16.5542C92.6985 16.8154 93.0094 16.946 93.3825 16.946ZM99.8996 12.7579C100.515 12.7579 101.013 12.9538 101.392 13.3456C101.771 13.7311 101.961 14.2721 101.961 14.9686V18H100.655V15.1458C100.655 14.7354 100.553 14.4213 100.347 14.2037C100.142 13.9798 99.8623 13.8679 99.5078 13.8679C99.1472 13.8679 98.8611 13.9798 98.6497 14.2037C98.4445 14.4213 98.3419 14.7354 98.3419 15.1458V18H97.036V12.8326H98.3419V13.4762C98.516 13.2523 98.7368 13.0782 99.0042 12.9538C99.2778 12.8232 99.5762 12.7579 99.8996 12.7579ZM105.18 18.0839C104.757 18.0839 104.378 18.0093 104.042 17.8601C103.706 17.7046 103.439 17.4963 103.24 17.2351C103.047 16.974 102.942 16.6848 102.923 16.3677H104.238C104.263 16.5667 104.359 16.7315 104.527 16.862C104.701 16.9926 104.916 17.0579 105.171 17.0579C105.42 17.0579 105.612 17.0082 105.749 16.9087C105.892 16.8092 105.964 16.6817 105.964 16.5263C105.964 16.3584 105.877 16.234 105.703 16.1532C105.535 16.0661 105.264 15.9728 104.891 15.8733C104.506 15.7801 104.188 15.6837 103.94 15.5842C103.697 15.4847 103.486 15.3323 103.305 15.1271C103.131 14.9219 103.044 14.6452 103.044 14.297C103.044 14.0109 103.125 13.7498 103.287 13.5135C103.455 13.2772 103.691 13.0906 103.996 12.9538C104.307 12.817 104.67 12.7486 105.087 12.7486C105.703 12.7486 106.194 12.9041 106.561 13.215C106.928 13.5197 107.13 13.9332 107.167 14.4555H105.917C105.898 14.2503 105.811 14.0887 105.656 13.9705C105.507 13.8461 105.305 13.784 105.05 13.784C104.813 13.784 104.63 13.8275 104.499 13.9145C104.375 14.0016 104.313 14.1229 104.313 14.2783C104.313 14.4524 104.4 14.5861 104.574 14.6794C104.748 14.7665 105.019 14.8566 105.385 14.9499C105.759 15.0432 106.066 15.1396 106.309 15.2391C106.551 15.3385 106.76 15.494 106.934 15.7054C107.114 15.9106 107.207 16.1842 107.214 16.5263C107.214 16.8247 107.13 17.0921 106.962 17.3284C106.8 17.5647 106.564 17.7513 106.253 17.8881C105.948 18.0187 105.591 18.0839 105.18 18.0839ZM112.756 18.0653C112.302 18.0653 111.892 17.9876 111.525 17.8321C111.164 17.6766 110.878 17.4528 110.667 17.1605C110.455 16.8683 110.346 16.5231 110.34 16.1252H111.739C111.758 16.3926 111.851 16.604 112.019 16.7594C112.193 16.9149 112.43 16.9926 112.728 16.9926C113.033 16.9926 113.272 16.9211 113.446 16.7781C113.62 16.6289 113.707 16.4361 113.707 16.1998C113.707 16.007 113.648 15.8485 113.53 15.7241C113.412 15.5997 113.263 15.5033 113.083 15.4349C112.908 15.3603 112.666 15.2795 112.355 15.1924C111.932 15.068 111.587 14.9468 111.32 14.8286C111.058 14.7043 110.831 14.5208 110.639 14.2783C110.452 14.0296 110.359 13.7 110.359 13.2896C110.359 12.9041 110.455 12.5683 110.648 12.2822C110.841 11.9962 111.111 11.7785 111.46 11.6293C111.808 11.4738 112.206 11.3961 112.653 11.3961C113.325 11.3961 113.869 11.5609 114.286 11.8905C114.709 12.2138 114.942 12.6678 114.985 13.2523H113.549C113.536 13.0284 113.44 12.845 113.26 12.702C113.086 12.5527 112.852 12.4781 112.56 12.4781C112.305 12.4781 112.1 12.5434 111.945 12.674C111.795 12.8046 111.721 12.9942 111.721 13.243C111.721 13.4171 111.777 13.5632 111.889 13.6814C112.007 13.7933 112.15 13.8866 112.318 13.9612C112.492 14.0296 112.734 14.1104 113.045 14.2037C113.468 14.3281 113.813 14.4524 114.081 14.5768C114.348 14.7012 114.578 14.8877 114.771 15.1365C114.964 15.3852 115.06 15.7116 115.06 16.1158C115.06 16.4641 114.97 16.7874 114.789 17.0859C114.609 17.3844 114.345 17.6238 113.997 17.8041C113.648 17.9782 113.235 18.0653 112.756 18.0653ZM121.136 12.8326L117.936 20.4438H116.547L117.666 17.8694L115.595 12.8326H117.06L118.393 16.4423L119.746 12.8326H121.136ZM123.817 18.0839C123.394 18.0839 123.015 18.0093 122.679 17.8601C122.343 17.7046 122.076 17.4963 121.877 17.2351C121.684 16.974 121.578 16.6848 121.56 16.3677H122.875C122.9 16.5667 122.996 16.7315 123.164 16.862C123.338 16.9926 123.553 17.0579 123.808 17.0579C124.056 17.0579 124.249 17.0082 124.386 16.9087C124.529 16.8092 124.601 16.6817 124.601 16.5263C124.601 16.3584 124.513 16.234 124.339 16.1532C124.171 16.0661 123.901 15.9728 123.528 15.8733C123.142 15.7801 122.825 15.6837 122.576 15.5842C122.334 15.4847 122.123 15.3323 121.942 15.1271C121.768 14.9219 121.681 14.6452 121.681 14.297C121.681 14.0109 121.762 13.7498 121.924 13.5135C122.091 13.2772 122.328 13.0906 122.632 12.9538C122.943 12.817 123.307 12.7486 123.724 12.7486C124.339 12.7486 124.831 12.9041 125.197 13.215C125.564 13.5197 125.766 13.9332 125.804 14.4555H124.554C124.535 14.2503 124.448 14.0887 124.293 13.9705C124.143 13.8461 123.941 13.784 123.686 13.784C123.45 13.784 123.267 13.8275 123.136 13.9145C123.012 14.0016 122.95 14.1229 122.95 14.2783C122.95 14.4524 123.037 14.5861 123.211 14.6794C123.385 14.7665 123.655 14.8566 124.022 14.9499C124.395 15.0432 124.703 15.1396 124.946 15.2391C125.188 15.3385 125.396 15.494 125.571 15.7054C125.751 15.9106 125.844 16.1842 125.85 16.5263C125.85 16.8247 125.766 17.0921 125.599 17.3284C125.437 17.5647 125.201 17.7513 124.89 17.8881C124.585 18.0187 124.227 18.0839 123.817 18.0839ZM128.443 13.9052V16.405C128.443 16.5791 128.483 16.7066 128.564 16.7874C128.651 16.862 128.794 16.8994 128.993 16.8994H129.599V18H128.779C127.678 18 127.128 17.4652 127.128 16.3957V13.9052H126.512V12.8326H127.128V11.5547H128.443V12.8326H129.599V13.9052H128.443ZM135.342 15.3043C135.342 15.4909 135.33 15.6588 135.305 15.808H131.527C131.558 16.1811 131.689 16.4734 131.919 16.6848C132.149 16.8962 132.432 17.002 132.768 17.002C133.253 17.002 133.598 16.7936 133.803 16.377H135.212C135.062 16.8745 134.776 17.2849 134.354 17.6082C133.931 17.9254 133.411 18.0839 132.796 18.0839C132.298 18.0839 131.851 17.9751 131.453 17.7575C131.061 17.5336 130.753 17.2196 130.529 16.8154C130.312 16.4112 130.203 15.9448 130.203 15.4163C130.203 14.8815 130.312 14.412 130.529 14.0078C130.747 13.6036 131.052 13.2927 131.443 13.0751C131.835 12.8574 132.286 12.7486 132.796 12.7486C133.287 12.7486 133.725 12.8543 134.111 13.0657C134.503 13.2772 134.804 13.5788 135.016 13.9705C135.233 14.356 135.342 14.8007 135.342 15.3043ZM133.99 14.9312C133.984 14.5955 133.862 14.3281 133.626 14.1291C133.39 13.9239 133.101 13.8213 132.759 13.8213C132.435 13.8213 132.162 13.9208 131.938 14.1198C131.72 14.3125 131.586 14.583 131.537 14.9312H133.99ZM142.713 12.7579C143.347 12.7579 143.857 12.9538 144.242 13.3456C144.634 13.7311 144.83 14.2721 144.83 14.9686V18H143.524V15.1458C143.524 14.7416 143.422 14.4338 143.216 14.2224C143.011 14.0047 142.731 13.8959 142.377 13.8959C142.023 13.8959 141.74 14.0047 141.528 14.2224C141.323 14.4338 141.22 14.7416 141.22 15.1458V18H139.915V15.1458C139.915 14.7416 139.812 14.4338 139.607 14.2224C139.401 14.0047 139.122 13.8959 138.767 13.8959C138.407 13.8959 138.121 14.0047 137.909 14.2224C137.704 14.4338 137.601 14.7416 137.601 15.1458V18H136.295V12.8326H137.601V13.4575C137.769 13.2399 137.984 13.0689 138.245 12.9445C138.512 12.8201 138.805 12.7579 139.122 12.7579C139.526 12.7579 139.887 12.845 140.204 13.0191C140.521 13.187 140.766 13.4295 140.941 13.7467C141.108 13.4482 141.351 13.2088 141.668 13.0284C141.991 12.8481 142.34 12.7579 142.713 12.7579Z" fill="black"/>
<path d="M3 26V4H8.29412V12.3243H12.7059V4H18V26H17.1176H12.7059V16.4865H8.29412V26H3Z" fill="#4A6CF7"/>
<path d="M25 26V4H37.9884V8.05263H29.7539V12.1053H36.5453V16.7368H29.7539V21.3684H37.9884C37.9884 21.3684 38.0145 24.1746 37.9884 26H25Z" fill="#4A6CF7"/>
</g>
<defs>
<clipPath id="clip0_1826_4">
<rect width="149" height="28" fill="white"/>
</clipPath>
</defs>
</svg>
